G04 EAGLE Gerber RS-274X export*
G75*
%MOMM*%
%FSLAX34Y34*%
%LPD*%
%INBottom Copper*%
%IPPOS*%
%AMOC8*
5,1,8,0,0,1.08239X$1,22.5*%
G01*
%ADD10C,1.117600*%
%ADD11P,1.429621X8X202.500000*%
%ADD12C,1.320800*%
%ADD13C,1.320800*%
%ADD14C,1.524000*%
%ADD15P,1.429621X8X112.500000*%
%ADD16C,0.406400*%
%ADD17C,1.219200*%
%ADD18C,0.304800*%
%ADD19C,0.300000*%
%ADD20C,1.206400*%


D10*
X247650Y221488D02*
X247650Y210312D01*
X196850Y210312D02*
X196850Y221488D01*
D11*
X19050Y69850D03*
D12*
X69850Y69850D03*
D11*
X19050Y184150D03*
D12*
X69850Y184150D03*
D13*
X215646Y63500D02*
X228854Y63500D01*
X317246Y63500D02*
X330454Y63500D01*
X146050Y88646D02*
X146050Y101854D01*
X171450Y101854D02*
X171450Y88646D01*
X196850Y88646D02*
X196850Y101854D01*
X222250Y101854D02*
X222250Y88646D01*
X247650Y88646D02*
X247650Y101854D01*
X273050Y101854D02*
X273050Y88646D01*
X298450Y88646D02*
X298450Y101854D01*
X323850Y101854D02*
X323850Y88646D01*
X349250Y88646D02*
X349250Y101854D01*
X349250Y164846D02*
X349250Y178054D01*
X323850Y178054D02*
X323850Y164846D01*
X298450Y164846D02*
X298450Y178054D01*
X273050Y178054D02*
X273050Y164846D01*
X247650Y164846D02*
X247650Y178054D01*
X222250Y178054D02*
X222250Y164846D01*
X196850Y164846D02*
X196850Y178054D01*
X171450Y178054D02*
X171450Y164846D01*
X146050Y164846D02*
X146050Y178054D01*
D14*
X355600Y208280D02*
X355600Y223520D01*
X381000Y223520D02*
X381000Y208280D01*
X406400Y208280D02*
X406400Y223520D01*
X431800Y223520D02*
X431800Y208280D01*
X425450Y33020D02*
X425450Y17780D01*
X400050Y17780D02*
X400050Y33020D01*
X374650Y33020D02*
X374650Y17780D01*
X349250Y17780D02*
X349250Y33020D01*
X323850Y33020D02*
X323850Y17780D01*
X298450Y17780D02*
X298450Y33020D01*
X273050Y33020D02*
X273050Y17780D01*
X247650Y17780D02*
X247650Y33020D01*
X222250Y33020D02*
X222250Y17780D01*
X196850Y17780D02*
X196850Y33020D01*
X171450Y33020D02*
X171450Y17780D01*
X146050Y17780D02*
X146050Y33020D01*
X120650Y33020D02*
X120650Y17780D01*
X95250Y17780D02*
X95250Y33020D01*
X69850Y33020D02*
X69850Y17780D01*
X44450Y17780D02*
X44450Y33020D01*
X19050Y33020D02*
X19050Y17780D01*
D11*
X44450Y228600D03*
X19050Y228600D03*
D15*
X38100Y114300D03*
X19050Y127000D03*
X38100Y139700D03*
D16*
X260350Y203200D02*
X279400Y222250D01*
X260350Y203200D02*
X260350Y120650D01*
X247650Y107950D01*
X247650Y95250D01*
D17*
X279400Y222250D03*
D18*
X69850Y69850D02*
X50800Y88900D01*
X50800Y101600D01*
X38100Y114300D01*
D19*
X393700Y82550D02*
X393700Y209550D01*
X400050Y215900D01*
X406400Y215900D01*
D20*
X393700Y82550D03*
D18*
X349250Y152400D02*
X349250Y171450D01*
X349250Y152400D02*
X368300Y133350D01*
X368300Y69850D01*
X349250Y50800D01*
X330200Y50800D01*
X323850Y44450D01*
X323850Y25400D01*
X381000Y69850D02*
X381000Y165100D01*
X355600Y190500D01*
X330200Y190500D01*
X323850Y184150D01*
X323850Y171450D01*
D17*
X381000Y69850D03*
D18*
X273050Y171450D02*
X273050Y190500D01*
X279400Y196850D01*
X374650Y196850D01*
X381000Y203200D01*
X381000Y215900D01*
X146050Y171450D02*
X146050Y146050D01*
X127000Y127000D01*
X127000Y57150D01*
X120650Y50800D01*
X120650Y25400D01*
X171450Y171450D02*
X171450Y184150D01*
X165100Y190500D01*
X107950Y190500D01*
X95250Y177800D01*
X95250Y25400D01*
D16*
X0Y0D02*
X0Y254000D01*
X0Y0D02*
X457200Y0D01*
X457200Y254000D01*
X0Y254000D01*
M02*
