M48
;GenerationSoftware,Autodesk,EAGLE,9.6.2*%
;CreationDate,2022-03-01T12:18:31Z*%
FMAT,2
ICI,OFF
METRIC,TZ,000.000
T4C0.610
T3C0.800
T2C0.813
T1C1.016
%
G90
M71
T1
X42545Y2540
X40640Y21590
X4445Y2540
X38100Y21590
X35560Y21590
X43180Y21590
X40005Y2540
X37465Y2540
X34925Y2540
X32385Y2540
X29845Y2540
X27305Y2540
X24765Y2540
X22225Y2540
X19685Y2540
X17145Y2540
X14605Y2540
X12065Y2540
X9525Y2540
X6985Y2540
X1905Y2540
T2
X34925Y17145
X29845Y17145
X27305Y17145
X24765Y17145
X22225Y17145
X19685Y17145
X6985Y6985
X14605Y17145
X27940Y22225
X17145Y17145
X38100Y6985
X1905Y6985
X1905Y18415
X6985Y18415
X22225Y6350
X32385Y6350
X14605Y9525
X17145Y9525
X19685Y9525
X22225Y9525
X24765Y9525
X27305Y9525
X29845Y9525
X32385Y9525
X32385Y17145
X34925Y9525
X4445Y22860
X1905Y22860
X3810Y11430
X1905Y12700
X3810Y13970
T3
X39370Y8255
T4
X19685Y21590
X24765Y21590
M30