M48
INCH
T1C00.024
T2C00.025
T3C00.035
%
T001
X00608Y00408
X01758Y01658
T002
X00208Y00708
X00208Y00808
X00208Y00908
X00208Y01008
X00208Y01108
X00208Y01208
X00208Y01308
X00208Y01408
X00508Y00708
X00508Y00808
X00508Y00908
X00508Y01008
X00508Y01108
X00508Y01208
X00508Y01308
X00508Y01408
X00758Y00208
X00758Y00508
X00758Y01608
X00758Y01908
X00858Y00208
X00858Y00508
X00858Y01608
X00858Y01908
X00958Y00208
X00958Y00508
X00958Y01608
X00958Y01908
X01058Y00208
X01058Y00508
X01058Y01608
X01058Y01908
X01158Y00208
X01158Y00508
X01158Y01608
X01158Y01908
X01258Y00208
X01258Y00508
X01258Y01608
X01258Y01908
X01358Y00208
X01358Y00508
X01358Y01608
X01358Y01908
X01458Y00208
X01458Y00508
X01458Y01608
X01458Y01908
X01658Y00708
X01658Y00808
X01658Y00908
X01658Y01008
X01658Y01108
X01658Y01208
X01658Y01308
X01658Y01408
X01958Y00708
X01958Y00808
X01958Y00908
X01958Y01008
X01958Y01108
X01958Y01208
X01958Y01308
X01958Y01408
T003
X00158Y00158
X00158Y00608
X00158Y01758
X00158Y01958
X00258Y00608
X00308Y01708
X00358Y00608
X00458Y00608
X00558Y01758
X00658Y00158
X00658Y00258
X00658Y00358
X00658Y00458
X01558Y01658
X01558Y01758
X01558Y01858
X01558Y01958
X01658Y00358
X01708Y01558
X01758Y00508
X01808Y01558
X01908Y01558
X01958Y00158
X01958Y00558
X01958Y01958
X02008Y01558
M30
