G05
M48
INCH,TZ
FMAT,2
T1C000.02400
T2C000.02500
T3C000.03500
%
T001
X0.55250Y0.35250
X1.70250Y1.60250
T002
X0.15250Y0.65250
X0.15250Y0.75250
X0.15250Y0.85250
X0.15250Y0.95250
X0.15250Y1.05250
X0.15250Y1.15250
X0.15250Y1.25250
X0.15250Y1.35250
X0.45250Y0.65250
X0.45250Y0.75250
X0.45250Y0.85250
X0.45250Y0.95250
X0.45250Y1.05250
X0.45250Y1.15250
X0.45250Y1.25250
X0.45250Y1.35250
X0.70250Y0.15250
X0.70250Y0.45250
X0.70250Y1.55250
X0.70250Y1.85250
X0.80250Y0.15250
X0.80250Y0.45250
X0.80250Y1.55250
X0.80250Y1.85250
X0.90250Y0.15250
X0.90250Y0.45250
X0.90250Y1.55250
X0.90250Y1.85250
X1.00250Y0.15250
X1.00250Y0.45250
X1.00250Y1.55250
X1.00250Y1.85250
X1.10250Y0.15250
X1.10250Y0.45250
X1.10250Y1.55250
X1.10250Y1.85250
X1.20250Y0.15250
X1.20250Y0.45250
X1.20250Y1.55250
X1.20250Y1.85250
X1.30250Y0.15250
X1.30250Y0.45250
X1.30250Y1.55250
X1.30250Y1.85250
X1.40250Y0.15250
X1.40250Y0.45250
X1.40250Y1.55250
X1.40250Y1.85250
X1.60250Y0.65250
X1.60250Y0.75250
X1.60250Y0.85250
X1.60250Y0.95250
X1.60250Y1.05250
X1.60250Y1.15250
X1.60250Y1.25250
X1.60250Y1.35250
X1.90250Y0.65250
X1.90250Y0.75250
X1.90250Y0.85250
X1.90250Y0.95250
X1.90250Y1.05250
X1.90250Y1.15250
X1.90250Y1.25250
X1.90250Y1.35250
T003
X0.10250Y0.10250
X0.10250Y0.55250
X0.10250Y1.70250
X0.10250Y1.90250
X0.20250Y0.55250
X0.25250Y1.65250
X0.30250Y0.55250
X0.40250Y0.55250
X0.50250Y1.70250
X0.60250Y0.10250
X0.60250Y0.20250
X0.60250Y0.30250
X0.60250Y0.40250
X1.50250Y1.60250
X1.50250Y1.70250
X1.50250Y1.80250
X1.50250Y1.90250
X1.60250Y0.30250
X1.65250Y1.50250
X1.70250Y0.45250
X1.75250Y1.50250
X1.85250Y1.50250
X1.90250Y0.10250
X1.90250Y0.50250
X1.90250Y1.90250
X1.95250Y1.50250
M30
