M48
; DRILL file {KiCad (5.1.12)-1} date 03/02/22 10:17:00
; FORMAT={-:-/ absolute / metric / decimal}
; #@! TF.CreationDate,2022-03-02T10:17:00+00:00
; #@! TF.GenerationSoftware,Kicad,Pcbnew,(5.1.12)-1
FMAT,2
METRIC
T1C0.813
T2C1.016
T3C1.524
T4C3.048
%
G90
G05
T1
X132.08Y-116.84
X132.08Y-124.46
X135.89Y-107.95
X135.89Y-115.57
X135.89Y-119.38
X135.89Y-124.46
X146.05Y-97.79
X153.67Y-97.79
X164.465Y-117.475
X164.465Y-125.095
T2
X138.43Y-95.885
X138.43Y-100.965
X143.617Y-111.836
X143.617Y-115.453
X145.771Y-108.91
X145.771Y-118.42
X149.225Y-107.772
X152.679Y-108.91
X152.679Y-118.42
X154.833Y-111.836
X154.833Y-115.494
T3
X127.0Y-100.33
X127.0Y-105.41
X127.0Y-114.3
X127.0Y-119.38
X145.415Y-129.54
X150.495Y-129.54
X164.465Y-107.95
X164.465Y-113.03
T4
X127.0Y-93.98
X127.0Y-129.54
X165.1Y-93.98
X165.1Y-129.54
T0
M30
